<?xml version="1.0" encoding="utf-8"?>
<!-- Generator: Adobe Illustrator 24.2.3, SVG Export Plug-In . SVG Version: 6.00 Build 0)  -->
<svg version="1.1" xmlns="http://www.w3.org/2000/svg" xmlns:xlink="http://www.w3.org/1999/xlink" x="0px" y="0px"
	 viewBox="0 0 406.65 194.4" style="enable-background:new 0 0 406.65 194.4;" xml:space="preserve">
<style type="text/css">
	.st0{fill:#231F20;}
	.st1{fill:none;stroke:#231F20;stroke-width:3.8917;stroke-miterlimit:10;}
	.st2{fill:#231F20;stroke:#FFFFFF;stroke-width:0.2999;stroke-miterlimit:10;}
	.st3{fill:#231F20;stroke:#FFFFFF;stroke-width:0.6863;stroke-miterlimit:10;}
	.st4{fill:#FFFFFF;}
</style>
<g id="Layer_1">
</g>
<g id="Layer_3">
	<g>
		<path class="st0" d="M110.69,163.05c-0.24,0.77-0.75,2.05-1.94,2.97c-1.39,1.07-3.01,1.13-3.71,1.14
			c-17.3,0.35-25.95,0.53-43.26,0.23c-6.09-0.11-8.42,0.1-13.71-0.46c-9.91-1.04-14.96-3.14-17.25-4.21
			c-4.9-2.28-7.44-4.53-8.24-5.28c-1.83-1.71-4.2-3.93-5.49-7.54c-1.68-4.7-1.44-11.47,2.16-13.79c1.27-0.82,3.4-1.37,4.81-0.38
			c1.36,0.96,1.59,3.05,1.22,4.49c-0.5,1.95-1.96,2.12-3.05,3.96c-1.88,3.17-0.43,7.2-0.23,7.77c1.09,3.04,3.73,5.41,8.46,7.4
			c9.22,3.89,17.09,2.43,32.91,2.08c9.71-0.22,19.43,0.29,29.14,0.4c-0.57-2.88-2.17-12.89,3.76-21.93
			c4.07-6.19,9.76-9.02,13.38-10.82c6.88-3.41,13.22-4.14,16.97-4.29c2.24-11.29,8.52-20.11,16.8-22.11
			c5.07-1.23,13.08-0.46,15.09,3.41c0.41,0.8,1.31,3.15,0.2,4.54c-0.53,0.67-1.51,1.1-2.43,0.96c-1.77-0.26-2.04-2.47-3.77-4.11
			c-2.59-2.46-6.75-1.98-7.77-1.86c-5.84,0.68-9.06,5.89-10.17,7.69c-2.83,4.58-2.87,9.22-2.74,11.31
			c5.98-0.08,11.96-0.15,17.94-0.23c-0.06,0.49-0.21,1.19-0.57,1.94c-0.56,1.16-1.36,1.87-1.83,2.23c-5.49,0-10.97,0-16.46,0
			c-1.02,6.18-2.09,13.19-3.43,20.91c4.91,0,9.83,0,14.74,0c1.37,0,2.74,0,4.11,0c0.07,0.35,0.2,1.24-0.23,2.23
			c-0.59,1.35-1.79,1.87-2.05,1.98c-5.64,0.27-11.28,0.54-16.93,0.82c-0.71,5.23-1.8,9.36-2.69,12.21c0,0-3.82,10.71-3.82,10.71
			h6.51c0.08,0.15,0.69,1.33,0.11,2.63c-0.5,1.13-1.53,1.53-1.71,1.6c-3.14-0.59-7.36-0.89-12,0.34c-0.85,0.22-1.65,0.48-2.4,0.76
			c-0.04-0.39-0.02-0.93,0.27-1.43c0.37-0.65,1-0.87,1.56-1.17c0,0,0.49-0.26,2.44-2.09c2.88-2.7,4.64-10.25,4.64-10.25
			c0.76-3.27,1.56-7.85,1.71-13.49c-1.12-0.32-3.01-0.69-5.24-0.24c-0.85,0.17-1.58,0.43-2.19,0.7c-0.07-0.26-0.29-1.25,0.23-2.29
			c0.66-1.32,1.98-1.67,2.17-1.71c2.04-0.21,4.08-0.42,6.11-0.63c0.6-3.14,1.47-7.79,2.52-13.61c0.65-3.59,1.02-5.85-0.29-7.13
			c-0.69-0.67-1.96-1.18-6.29-0.34c-3.93,0.76-8.03,1.56-12.69,4.8c-3.48,2.42-8.04,5.6-9.6,11.43c-1.59,5.95,0.02,14.49,5.94,17.37
			C105.56,164.21,108.87,163.58,110.69,163.05z"/>
		<path class="st0" d="M173.78,148.53c1.14-2.74,1.41-3.91,0.79-4.88c-0.56-0.87-1.76-1.29-6.05-1.29
			c-5.18-0.01-7.77-0.01-10.06,0.8c-4.57,1.62-7.16,4.78-9.14,7.2c-4.05,4.94-5.36,9.86-6.17,13.03
			c-1.23,4.82-3.35,13.09,0.57,16.23c1.45,1.16,3.54,1.48,5.23,1.14c5.87-1.18,11.63-11.24,14.71-14.8
			c0.29-0.33,0.92-1.05,1.36-0.86c0.28,0.12,0.49,0.44,0.52,1.03c0.09,1.54-0.34,11.74,0,13.2c0.34,1.46,6.77,1.2,8.31-1.89v-1.39
			c-1.06-0.22-2.11-0.44-3.17-0.66c-1.89-7.04-1.23-12.04-0.19-15.39C171.67,156.2,172.25,152.21,173.78,148.53z M167.43,152.83
			c-1.63,9.72-14.23,22.99-15,23.16c-0.77,0.17-5.49,0.85-3-12.34c2.49-13.18,8.57-16.48,8.57-16.48S169.06,143.12,167.43,152.83z"
			/>
		<path class="st0" d="M197.21,172.99c0.75,1.68-6.2,8.91-12.8,7.77c-2.64-0.46-4.4-2.12-4.91-2.63
			c-6.41-6.46-3.66-22.18,4.34-30.63c3.26-3.44,6.42-4.65,8.11-5.14c3.65-1.05,9.46-1.33,10.74,1.26c0.41,0.82,0.44,2.11-0.23,2.97
			c-1.87,2.41-7.08-1.25-12.23,0.57c-4.24,1.5-6.22,5.93-7.2,8.11c-3.46,7.74-1.93,18.47,2.74,20.23c1.35,0.51,4.32,0.78,6.4-0.69
			c1.31-0.93,2.13-2.45,3.66-2.4C195.93,172.42,196.97,172.46,197.21,172.99z"/>
		<path class="st0" d="M383.27,82.36c-6.36-11.75-17.66-15.59-19.66-16.23c-11.26-3.62-20.74-0.18-24.23,1.14
			c-3.09,1.18-20.22,7.68-22.86,23.31c-1.39,8.21,1.39,17.92,7.92,22.98c3.09,2.39,8.89,5.2,13.44,3.64c0.29-0.1,1.9-0.65,1.84-1.14
			c-0.09-0.76-4.34-0.02-7.31-1.03c-6.49-2.19-11.94-7.83-13.71-14.63c-2.57-9.85,3.67-17.96,5.94-20.91
			c9.63-12.52,25.45-12.7,27.31-12.69c3.37,0.02,17.26,0.57,26.51,12.11c8.98,11.21,6.84,24.35,6.4,27.09
			c-2.6,15.96-15.23,24.53-20,27.77c-1.73,1.17-10.38,6.88-23.09,8.46c-2.64,0.33-11.12,1.18-21.14-1.49
			c-3.42-0.91-6.85-2.32-13.71-5.14c-8.56-3.52-9.82-4.46-13.83-6.06c-6.76-2.69-23.79-9.46-33.21-2.27
			c-0.36,0.27-6.11,4.78-5.53,10.16c0.26,2.46,1.78,4.44,2.1,4.86c2.69,3.51,6.35,3.69,7.15,6.99c0.08,0.34,0.24,1,0.09,1.8
			c-0.16,0.89-0.99,3.71-8.89,6.01c-6.47,1.88-10.36,1.28-20.46,1.26c-10.85-0.03-16.83,0.65-17.26-1.03
			c-0.37-1.45,3.96-2.46,6.49-7.57c0.49-0.99,2.66-5.67,0.69-7.89c-1.62-1.82-5.18-0.99-6.14-0.77c-5.96,1.38-9.38,6.77-11.17,9.69
			c-1.07,1.74-10.31,17.17-3.77,26.31c0.78,1.09,3.16,4.01,6.6,4.23c5.13,0.33,10.25-5.46,9.49-7.66c-0.14-0.4-0.55-0.83-1.03-0.91
			c-1.31-0.23-1.96,2.3-3.89,3.2c-2.16,1.01-5.27-0.33-6.97-2.06c-3.27-3.32-2.81-9.62-0.11-11.54c1.42-1.02,3.02-0.5,6.17-0.03
			c4.45,0.66,8.99,0.21,13.48,0.37c10.15,0.38,15.22,0.57,18.74,0.11c8.26-1.08,12.42-3.46,14.17-4.57
			c2.48-1.58,6.04-3.92,6.97-8.11c0.16-0.72,0.63-2.84-0.23-5.14c-1.4-3.74-4.68-3.6-6.34-7.22c-0.08-0.18-1.71-3.87-0.06-6.95
			c2.4-4.48,9.76-3.98,10.86-3.89c3.27,0.28,5.63,1.53,6.4,1.94c6.6,3.48,13.88,5.49,20.91,8c20.63,7.35,26.62,7.93,29.26,8.11
			c12.35,0.86,21.45-2.01,23.66-2.74c3.3-1.09,9.48-3.48,16.11-8.34c4.01-2.94,9.87-7.33,14.4-15.31c1.72-3.03,5.15-9.24,5.49-18.06
			C387.37,97.72,387.56,90.3,383.27,82.36z M209.63,156.6c-0.51-0.45-0.91-1.45-0.26-3.95c0.25-0.98,1.4-4.97,5.09-6.74
			c1.51-0.72,4.57-1.62,5.83-0.23c1.35,1.49-0.14,4.74-1.14,6.29C216.64,155.84,211.29,158.06,209.63,156.6z"/>
		<path class="st1" d="M278.05,135.16H161.47c-1.83,0-3.31-1.48-3.31-3.31V15.27c0-1.83,1.48-3.31,3.31-3.31h116.57
			c1.83,0,3.31,1.48,3.31,3.31v116.57C281.36,133.68,279.88,135.16,278.05,135.16z"/>
		<path class="st2" d="M269.11,77.57"/>
		<path class="st3" d="M206.03,60.36c-3.73,3.73-7.46,7.46-11.19,11.19c0.81,0.82,1.96,1.82,3.51,2.72c1.21,0.7,2.35,1.15,3.28,1.45
			c0.23-0.85,0.55-2.02,0.94-3.42c0,0,0.23-0.81,0.47-1.68C204,67.23,205,63.81,206.03,60.36z"/>
		<g>
			<path class="st0" d="M221.63,52c0,0-4.17-4.51-4.17-4.51l-0.22-0.25l0.24-0.23c1.02-0.96,2.11-1.77,3.25-2.43
				c0.71-0.41,1.36-0.71,1.77-0.89c0.58-0.25,1.19-0.47,1.82-0.67l0.34-0.1l4.43,16.53L221.63,52z"/>
			<path class="st4" d="M224.43,43.37c1.33,4.98,2.67,9.96,4,14.95l-6.56-6.56c-0.01-0.01-2.23-2.41-2.24-2.42
				c0,0-1.92-2.07-1.92-2.08c1.26-1.18,2.4-1.93,3.18-2.38c0.77-0.44,1.45-0.75,1.74-0.87C223.23,43.77,223.82,43.55,224.43,43.37
				 M224.9,42.5l-0.68,0.21c-0.64,0.2-1.26,0.42-1.86,0.68c-0.35,0.15-1.04,0.46-1.81,0.9c-1.16,0.67-2.27,1.5-3.31,2.47l-0.5,0.47
				l0.46,0.5l1.2,1.3l0.72,0.78l1.12,1.21l1.12,1.21l6.57,6.58l1.81,1.81l-0.66-2.47l-2.04-7.62l-1.96-7.33L224.9,42.5L224.9,42.5z"
				/>
		</g>
		<g>
			<path class="st0" d="M214.1,78.89l12.06-3.02l0.07,0.01c1.05,0.2,2.11,0.31,3.17,0.31c1.88,0,3.72-0.32,5.49-0.94l0.39-0.14
				l0.06,0.41c0.15,0.97,0.21,1.79,0.21,2.58c0,1.69-0.25,3.37-0.74,5l-0.09,0.3L214.1,78.89z"/>
			<path class="st4" d="M235.01,75.57c0.12,0.83,0.21,1.67,0.21,2.53c0,1.71-0.26,3.35-0.73,4.9l-18.9-4.14l10.57-2.65
				c1.06,0.21,2.15,0.31,3.24,0.31C231.28,76.53,233.18,76.22,235.01,75.57 M235.57,74.64l-0.78,0.28
				c-1.73,0.61-3.54,0.92-5.38,0.92c-1.04,0-2.08-0.1-3.11-0.3l-0.15-0.03L226,75.55l-10.57,2.65l-2.84,0.71l2.86,0.63l18.9,4.14
				l0.62,0.14l0.18-0.61c0.5-1.66,0.76-3.38,0.76-5.1c0-0.81-0.07-1.65-0.22-2.64L235.57,74.64L235.57,74.64z"/>
		</g>
		<path class="st3" d="M241.52,71.41l-13.09-13.09l-6.56-6.56l-4.16-4.49c-1.4,1.4-2.12,2.43-3.67,5.09
			c-1.42,3.02-1.93,6.42-1.42,9.76c1.77-0.62,3.66-0.98,5.63-0.98c1.87,0,3.67,0.32,5.36,0.88c2.71,0.9,5.11,2.47,7.02,4.51
			c2.29,2.45,3.86,5.57,4.38,9.05c0.12,0.83,0.21,1.67,0.21,2.53c0,1.71-0.26,3.35-0.73,4.9c-2.1,6.98-8.57,12.06-16.24,12.06
			c-7.91,0-14.54-5.43-16.42-12.76l-23.68,5.93c6.1,3.24,14.24,8.4,22.39,16.39c8.79,8.62,14.33,17.36,17.71,23.71
			c3.92-6.83,10.05-15.81,19.34-24.64c7.43-7.07,14.78-12.03,20.75-15.46L241.52,71.41z"/>
		<path class="st3" d="M243.5,30.99c-10.99-3.06-19.53-7.53-25.39-11.19c0,0,0,0,0,0c-2.05,7.65-4.42,15.52-6.84,23.43
			c-1.75,5.72-3.52,11.45-5.23,17.14c-1.03,3.45-2.03,6.87-2.99,10.26c-0.48,1.71-0.96,3.41-1.41,5.1c0.44,0.14,0.88,0.27,1.33,0.37
			l0.33,0.07c5.27,1.13,10.8-0.34,14.82-3.92c-1.32-1.18-2.49-2.57-3.42-4.19c-0.58-1-1.64-3.08-2.07-5.94
			c-0.2-1.34-0.59-5.05,1.05-8.92c0.79-1.86,1.88-3.34,2.26-3.86c0.39-0.53,0.93-1.25,1.78-2.08c0.32-0.31,1.44-1.37,3.18-2.38
			c1.14-0.66,2.32-1.15,3.53-1.52c7.39-2.26,15.62,0.75,19.65,7.73c3.89,6.73,2.62,15.01-2.55,20.31l16.83,16.83
			c-0.02-6.89,0.46-14.73,2.86-24.7c3-12.46,7.71-22.26,11.67-29.07C265.69,34.72,255.36,34.29,243.5,30.99z"/>
		<path class="st3" d="M230.63,66.52c-1.91-2.04-4.31-3.6-7.02-4.51c-0.3,2.07-0.98,4.12-2.09,6.05c-0.93,1.61-2.1,3.01-3.42,4.18
			c-4.02,3.58-9.55,5.05-14.82,3.92c-0.11-0.02-0.22-0.05-0.33-0.07c-0.44-0.12-0.89-0.25-1.33-0.37l0,0l0,0
			c-0.05-0.02-0.1-0.03-0.15-0.04c-1.07-0.36-2.12-0.83-3.13-1.41c-1.32-0.76-2.48-1.69-3.51-2.72c-5.29-5.3-6.62-13.66-2.7-20.46
			c3.93-6.81,11.87-9.84,19.12-7.88c2.42-7.9,4.79-15.77,6.84-23.43c0,0,0,0,0-0.01c-5.85,3.66-14.39,8.14-25.39,11.2
			c-11.86,3.3-22.2,3.73-29.38,3.48c3.96,6.81,8.66,16.61,11.67,29.07c2.4,9.97,3.18,17.81,3.16,24.7l23.68-5.93l13.76-3.44
			l10.57-2.65l8.51-2.3c-0.06-0.22-0.43-1.68-0.88-2.58C232.67,69.08,231.94,68.07,230.63,66.52z"/>
	</g>
</g>
</svg>
