<?xml version="1.0" encoding="UTF-8" standalone="no"?>
<!-- Created with Inkscape (http://www.inkscape.org/) -->

<svg
   xmlns:dc="http://purl.org/dc/elements/1.1/"
   xmlns:cc="http://creativecommons.org/ns#"
   xmlns:rdf="http://www.w3.org/1999/02/22-rdf-syntax-ns#"
   xmlns:svg="http://www.w3.org/2000/svg"
   xmlns="http://www.w3.org/2000/svg"
   xmlns:sodipodi="http://sodipodi.sourceforge.net/DTD/sodipodi-0.dtd"
   xmlns:inkscape="http://www.inkscape.org/namespaces/inkscape"
   version="1.1"
   id="svg4605"
   xml:space="preserve"
   width="179.43813"
   height="36.981331"
   viewBox="0 0 179.43813 36.981331"
   sodipodi:docname="Logo-Cégep_de_Saint-Laurent.svg"
   inkscape:version="0.92.0 r15299"><metadata
     id="metadata4611"><rdf:RDF><cc:Work
         rdf:about=""><dc:format>image/svg+xml</dc:format><dc:type
           rdf:resource="http://purl.org/dc/dcmitype/StillImage" /><dc:title></dc:title></cc:Work></rdf:RDF></metadata><defs
     id="defs4609"><clipPath
       clipPathUnits="userSpaceOnUse"
       id="clipPath4621"><path
         d="M 0,66.353 H 567 V 519.872 H 0 Z"
         id="path4619"
         inkscape:connector-curvature="0" /></clipPath><clipPath
       clipPathUnits="userSpaceOnUse"
       id="clipPath4637"><path
         d="M 387.421,23.168 H 522 V 50.904 H 387.421 Z"
         id="path4635"
         inkscape:connector-curvature="0" /></clipPath></defs><sodipodi:namedview
     pagecolor="#ffffff"
     bordercolor="#666666"
     borderopacity="1"
     objecttolerance="10"
     gridtolerance="10"
     guidetolerance="10"
     inkscape:pageopacity="0"
     inkscape:pageshadow="2"
     inkscape:window-width="1920"
     inkscape:window-height="1057"
     id="namedview4607"
     showgrid="false"
     inkscape:pagecheckerboard="true"
     fit-margin-top="0"
     fit-margin-left="0"
     fit-margin-right="0"
     fit-margin-bottom="0"
     inkscape:zoom="5.1744868"
     inkscape:cx="85.739021"
     inkscape:cy="30.896369"
     inkscape:window-x="1912"
     inkscape:window-y="-7"
     inkscape:window-maximized="1"
     inkscape:current-layer="g4633" /><g
     id="g4613"
     inkscape:groupmode="layer"
     inkscape:label="RP2015-2016-PDFe"
     transform="matrix(1.3333333,0,0,-1.3333333,-516.56185,67.871998)"><g
       id="g4631"><g
         id="g4633"
         clip-path="url(#clipPath4637)"><g
           id="g4639"
           transform="translate(472.6036,46.685)"><path
             d="m 0,0 c -0.088,0.663 -0.858,1.083 -1.638,1.083 -1.878,0 -2.227,-1.543 -2.227,-2.744 0,-1.417 0.588,-2.745 2.236,-2.745 0.869,0 1.454,0.449 1.585,1.183 h 1.108 c -0.108,-1.144 -1.215,-2.004 -2.79,-2.004 -2.345,0 -3.246,1.652 -3.246,3.566 0,1.68 0.762,3.565 3.311,3.565 1.486,0 2.617,-0.683 2.737,-1.904 z"
             style="fill:#494d55;fill-opacity:1;fill-rule:nonzero;stroke:none"
             id="path4641"
             inkscape:connector-curvature="0" /></g><g
           id="g4643"
           transform="translate(475.9706,41.6051)"><path
             d="M 0,0 V 6.838 H 4.765 V 6.027 H 1.054 V 3.897 H 4.593 V 3.077 H 1.054 V 0.811 H 4.853 V 0 Z M 2.551,7.893 H 1.845 l 0.783,1.406 h 1.127 z"
             style="fill:#494d55;fill-opacity:1;fill-rule:nonzero;stroke:none"
             id="path4645"
             inkscape:connector-curvature="0" /></g><g
           id="g4647"
           transform="translate(488.1483,46.7435)"><path
             d="m 0,0 c -0.12,0.625 -0.706,1.025 -1.825,1.025 -1.79,0 -2.496,-1.378 -2.496,-2.657 0,-1.836 0.988,-2.833 2.747,-2.833 0.641,0 1.268,0.146 1.541,0.225 v 1.925 h -1.65 v 0.81 h 2.702 v -3.34 c -0.878,-0.236 -1.769,-0.44 -2.636,-0.44 -2.411,0 -3.81,1.241 -3.81,3.565 0,2.051 1.357,3.566 3.679,3.566 1.563,0 2.714,-0.665 2.812,-1.846 z"
             style="fill:#494d55;fill-opacity:1;fill-rule:nonzero;stroke:none"
             id="path4649"
             inkscape:connector-curvature="0" /></g><g
           id="g4651"
           transform="translate(491.7292,41.6051)"><path
             d="M 0,0 V 6.838 H 4.767 V 6.027 H 1.053 V 3.897 H 4.592 V 3.077 H 1.053 V 0.811 H 4.852 V 0 Z"
             style="fill:#494d55;fill-opacity:1;fill-rule:nonzero;stroke:none"
             id="path4653"
             inkscape:connector-curvature="0" /></g><g
           id="g4655"
           transform="translate(501.5143,44.5164)"><path
             d="M 0,0 H -1.456 V -2.911 H -2.508 V 3.926 H 0.065 C 1.726,3.926 2.68,3.321 2.68,1.973 2.68,0.722 1.694,0 0,0 M 0.227,3.115 H -1.456 V 0.801 h 1.683 c 0.76,0 1.347,0.331 1.347,1.172 0,0.841 -0.587,1.142 -1.347,1.142"
             style="fill:#494d55;fill-opacity:1;fill-rule:nonzero;stroke:none"
             id="path4657"
             inkscape:connector-curvature="0" /></g><g
           id="g4659"
           transform="translate(513.4911,42.0247)"><path
             d="m 0,0 c -0.609,-0.352 -1.359,-0.42 -2.064,-0.42 h -2.53 v 6.838 h 2.53 C -1.359,6.418 -0.609,6.359 0,6.008 1.103,5.372 1.616,4.298 1.616,2.999 1.616,1.7 1.103,0.635 0,0 M -0.078,4.826 C -0.371,5.216 -0.935,5.607 -2,5.607 H -3.541 V 0.392 H -2 c 1.065,0 1.629,0.39 1.922,0.78 0.456,0.586 0.587,1.193 0.587,1.827 0,0.635 -0.131,1.241 -0.587,1.827"
             style="fill:#494d55;fill-opacity:1;fill-rule:nonzero;stroke:none"
             id="path4661"
             inkscape:connector-curvature="0" /></g><g
           id="g4663"
           transform="translate(517.149,41.6051)"><path
             d="M 0,0 V 6.838 H 4.765 V 6.027 H 1.053 V 3.897 H 4.591 V 3.077 H 1.053 V 0.811 H 4.851 V 0 Z"
             style="fill:#494d55;fill-opacity:1;fill-rule:nonzero;stroke:none"
             id="path4665"
             inkscape:connector-curvature="0" /></g><g
           id="g4667"
           transform="translate(477.985,27.5737)"><path
             d="m 0,0 c 0,-1.595 0.05,-2.892 0.102,-3.914 h -3.293 l -0.174,1.722 h -0.074 c -0.475,-0.748 -1.621,-1.996 -3.816,-1.996 -2.493,0 -4.287,1.546 -4.287,5.31 v 7.156 h 3.789 V 1.722 c 0,-1.771 0.574,-2.844 1.92,-2.844 1.047,0 1.671,0.724 1.896,1.321 0.098,0.225 0.149,0.499 0.149,0.823 V 8.278 H 0 Z"
             style="fill:#00aae7;fill-opacity:1;fill-rule:nonzero;stroke:none"
             id="path4669"
             inkscape:connector-curvature="0" /></g><g
           id="g4671"
           transform="translate(480.03,31.8374)"><path
             d="M 0,0 C 0,1.796 -0.024,2.967 -0.1,4.015 H 3.141 L 3.29,1.745 h 0.102 c 0.622,1.795 2.092,2.543 3.29,2.543 0.35,0 0.523,-0.024 0.797,-0.075 V 0.648 C 7.18,0.698 6.882,0.748 6.456,0.748 5.061,0.748 4.112,0.026 3.864,-1.171 3.814,-1.421 3.79,-1.695 3.79,-2.019 V -8.177 H 0 Z"
             style="fill:#00aae7;fill-opacity:1;fill-rule:nonzero;stroke:none"
             id="path4673"
             inkscape:connector-curvature="0" /></g><g
           id="g4675"
           transform="translate(491.7755,28.5474)"><path
             d="m 0,0 c 0.125,-1.572 1.671,-2.318 3.44,-2.318 1.785,0 2.866,0.323 3.865,0.706 V -4.363 C 6.058,-4.887 4.537,-5.137 2.892,-5.137 c -4.14,0 -6.507,2.393 -6.507,6.208 0,3.092 1.943,6.507 6.158,6.507 3.939,0 5.435,-3.066 5.435,-6.082 C 7.978,0.847 7.902,0.274 7.854,0 Z m 4.463,2.592 c 0,0.922 -0.399,2.467 -2.12,2.467 -1.621,0 -2.268,-1.47 -2.368,-2.467 z"
             style="fill:#00aae7;fill-opacity:1;fill-rule:nonzero;stroke:none"
             id="path4677"
             inkscape:connector-curvature="0" /></g><g
           id="g4679"
           transform="translate(501.025,31.9624)"><path
             d="m 0,0 c 0,1.519 -0.049,2.793 -0.099,3.89 h 3.29 L 3.366,2.194 h 0.075 c 0.497,0.797 1.72,1.969 3.763,1.969 2.495,0 4.364,-1.67 4.364,-5.259 V -8.302 H 7.779 v 6.756 C 7.779,0.025 7.23,1.097 5.86,1.097 4.812,1.097 4.188,0.373 3.914,-0.325 3.815,-0.574 3.788,-0.922 3.788,-1.272 v -7.03 H 0 Z"
             style="fill:#00aae7;fill-opacity:1;fill-rule:nonzero;stroke:none"
             id="path4681"
             inkscape:connector-curvature="0" /></g><g
           id="g4683"
           transform="translate(448.406,23.3987)"><path
             d="M 0,0 H 3.64 V 3.178 H 0.683 c -1.347,0 -1.92,1.073 -1.92,2.842 V 17.369 L -5.028,16.652 V 6.196 5.56 C -5.028,1.795 -3.15,0 -0.103,0 c 0,0 0.039,0 0.103,-0.001 z"
             style="fill:#00aae7;fill-opacity:1;fill-rule:nonzero;stroke:none"
             id="path4685"
             inkscape:connector-curvature="0" /></g><g
           id="g4687"
           transform="translate(521.9138,26.5769)"><path
             d="m 0,0 h -0.706 c -1.346,0 -1.919,1.073 -1.919,2.842 v 3.672 h 2.711 v 2.791 h -2.711 v 2.93 l -3.789,-0.72 V 9.305 H -8.038 V 6.514 h 1.624 V 3.018 2.382 c 0,-3.757 1.868,-5.554 4.908,-5.56 H 0 Z"
             style="fill:#00aae7;fill-opacity:1;fill-rule:nonzero;stroke:none"
             id="path4689"
             inkscape:connector-curvature="0" /></g><g
           id="g4691"
           transform="translate(464.4724,26.6136)"><path
             d="m 0,0 c 0,-1.147 0.051,-2.269 0.2,-2.942 h -3.417 l -0.224,1.222 h -0.075 c -0.797,-0.973 -2.043,-1.496 -3.49,-1.496 -2.469,0 -3.939,1.794 -3.939,3.74 0,3.166 2.841,4.661 7.156,4.661 v 0.151 c 0,0.647 -0.349,1.569 -2.22,1.569 -1.836,0 -3.265,-0.807 -4.064,-1.28 V 8.427 C -9.224,8.9 -7.553,9.523 -5.337,9.523 -1.272,9.523 0,7.129 0,4.263 Z m -3.666,2.818 c -1.993,0 -3.54,-0.474 -3.54,-1.92 0,-0.973 0.648,-1.447 1.495,-1.447 0.924,0 1.723,0.623 1.97,1.397 0.052,0.2 0.075,0.423 0.075,0.648 z"
             style="fill:#00aae7;fill-opacity:1;fill-rule:nonzero;stroke:none"
             id="path4693"
             inkscape:connector-curvature="0" /></g><path
           d="m 438.565,32.658 h 3.221 v 3.214 h -3.221 z"
           style="fill:#494d55;fill-opacity:1;fill-rule:nonzero;stroke:none"
           id="path4695"
           inkscape:connector-curvature="0" /><g
           id="g4697"
           transform="translate(411.0039,26.6136)"><path
             d="m 0,0 c 0,-1.147 0.049,-2.269 0.2,-2.942 h -3.418 l -0.223,1.222 h -0.075 c -0.798,-0.973 -2.043,-1.496 -3.489,-1.496 -2.47,0 -3.94,1.794 -3.94,3.74 0,3.166 2.841,4.661 7.155,4.661 v 0.151 c 0,0.647 -0.35,1.569 -2.219,1.569 -1.838,0 -3.266,-0.807 -4.063,-1.28 V 8.427 C -9.225,8.9 -7.553,9.523 -5.337,9.523 -1.271,9.523 0,7.129 0,4.263 Z m -3.666,2.818 c -1.994,0 -3.54,-0.474 -3.54,-1.92 0,-0.973 0.648,-1.447 1.498,-1.447 0.922,0 1.719,0.623 1.967,1.397 0.051,0.2 0.075,0.423 0.075,0.648 z"
             style="fill:#494d55;fill-opacity:1;fill-rule:nonzero;stroke:none"
             id="path4699"
             inkscape:connector-curvature="0" /></g><g
           id="g4701"
           transform="translate(414.8845,37.3582)"><path
             d="M 0,0 H 0.023 C 1.18,0 1.897,0.787 1.897,1.76 1.874,2.755 1.18,3.519 0.045,3.519 -1.088,3.519 -1.83,2.755 -1.83,1.76 -1.83,0.787 -1.112,0 0,0"
             style="fill:#494d55;fill-opacity:1;fill-rule:nonzero;stroke:none"
             id="path4703"
             inkscape:connector-curvature="0" /></g><path
           d="m 413.023,23.671 h 3.788 v 12.192 h -3.788 z"
           style="fill:#494d55;fill-opacity:1;fill-rule:nonzero;stroke:none"
           id="path4705"
           inkscape:connector-curvature="0" /><g
           id="g4707"
           transform="translate(418.8569,31.9742)"><path
             d="m 0,0 c 0,1.52 -0.049,2.793 -0.099,3.889 h 3.29 L 3.367,2.194 h 0.074 c 0.499,0.798 1.72,1.969 3.765,1.969 2.492,0 4.362,-1.67 4.362,-5.26 V -8.303 H 7.779 v 6.758 c 0,1.57 -0.549,2.642 -1.921,2.642 -1.046,0 -1.67,-0.723 -1.944,-1.422 C 3.815,-0.575 3.79,-0.922 3.79,-1.27 V -8.303 H 0 Z"
             style="fill:#494d55;fill-opacity:1;fill-rule:nonzero;stroke:none"
             id="path4709"
             inkscape:connector-curvature="0" /></g><g
           id="g4711"
           transform="translate(438.8408,26.5664)"><path
             d="m 0,0 c -1.347,0 -1.92,1.072 -1.92,2.842 v 9.4 L -5.709,11.521 V 9.305 H -7.332 V 6.514 6.091 h 1.623 V 3.017 2.382 c 0,-3.759 1.868,-5.554 4.908,-5.562 H 0.631 V 0 Z"
             style="fill:#494d55;fill-opacity:1;fill-rule:nonzero;stroke:none"
             id="path4713"
             inkscape:connector-curvature="0" /></g><g
           id="g4715"
           transform="translate(387.5924,27.663)"><path
             d="m 0,0 c 1.327,-0.852 3.49,-1.314 4.717,-1.314 1.783,0 2.725,0.739 2.725,1.858 0,1.07 -0.816,1.682 -2.878,2.395 -2.852,1.018 -4.735,2.597 -4.735,5.092 0,2.928 2.47,5.144 6.492,5.144 1.961,0 3.36,-0.382 4.379,-0.867 V 8.685 C 9.926,9.3 8.252,10.017 6.271,10.017 c -1.682,0 -2.496,-0.789 -2.496,-1.655 0,-1.095 0.942,-1.578 3.183,-2.418 3.029,-1.122 4.432,-2.7 4.432,-5.119 0,-2.877 -2.192,-5.32 -6.903,-5.32 -1.061,0 -3.519,0.334 -4.487,0.87 z"
             style="fill:#494d55;fill-opacity:1;fill-rule:nonzero;stroke:none"
             id="path4717"
             inkscape:connector-curvature="0" /></g></g></g></g></svg>